# xmcd
#
# Track frame offsets: 
#        150
#        73683
#        74784
#        80921
#        87595
#        95619
#        96118
#        114425
#        123877
#        127243
#        129746
#        153548
#        171278
#        174080
#        191434
#        193236
#        196554
#        200531
#        201147
#        202258
#        206556
#        212898
#        224558
#        241320
#        243369
#        255367
#        263195
#
# Disc length: 3574 seconds
#
# Revision: 0
# Processed by: cddbd v1.5.2PL0 Copyright (c) Steve Scherf et al.
# Submitted via: ExactAudioCopy v0.95b4
#
DISCID=aa0df41b
DTITLE=The Beatles  - AB  Road - Complete Purple Chick Set v1.1 Jan.10
DTITLE=Various Artist - D3  FLAC
DYEAR=1900
DGENRE=
TTITLE0=Two Of Us 10.48
TTITLE1=I'm Talking About You 10.49 (George quits)
TTITLE2=George Leaves The Room
TTITLE3=A Quick One While He's Away 10.50
TTITLE4=A Quick One While He's Away 10.51
TTITLE5=A Quick One While He's Away 10.52
TTITLE6=A Quick One While He's Away 10.53
TTITLE7=Improvisation 10.54
TTITLE8=Improvisation 10.55
TTITLE9=Improvisation 10.56
TTITLE10=Improvisation 10.57
TTITLE11=Improvisation 10.58
TTITLE12=I've Got A Feeling 10.59
TTITLE13=Improvisation 10.60
TTITLE14=Don't Let Me Down 10.61
TTITLE15=Till There Was You 10.62
TTITLE16=C'mon Everybody 10.63
TTITLE17=Unknown 10.64
TTITLE18=Maxwell's Silver Hammer 10.65
TTITLE19=Mack The Knife 10.66
TTITLE20=Maxwell's Silver Hammer 10.67
TTITLE21=Maxwell's Silver Hammer 10.68
TTITLE22=Don't Be Cruel 10.69
TTITLE23=On A Sunny Island 10.70
TTITLE24=The Peanut Vendor 10.71
TTITLE25=It's Only Make Believe 10.72
TTITLE26=Through A London Window 10.73
EXTD=
EXTT0=
EXTT1=
EXTT2=
EXTT3=
EXTT4=
EXTT5=
EXTT6=
EXTT7=
EXTT8=
EXTT9=
EXTT10=
EXTT11=
EXTT12=
EXTT13=
EXTT14=
EXTT15=
EXTT16=
EXTT17=
EXTT18=
EXTT19=
EXTT20=
EXTT21=
EXTT22=
EXTT23=
EXTT24=
EXTT25=
EXTT26=
PLAYORDER=
